<svg viewBox="0 0 32 32" xmlns="http://www.w3.org/2000/svg">
  <!-- Body -->
  <circle cx="16" cy="16" r="12" fill="#1E3A8A" />
  
  <!-- Eyes -->
  <circle cx="12" cy="13" r="2" fill="#FF0000" />
  <circle cx="20" cy="13" r="2" fill="#FF0000" />
  
  <!-- Mouth -->
  <path d="M12,20 Q16,24 20,20" stroke="#FFFFFF" stroke-width="1.5" fill="none" />
  
  <!-- Spikes -->
  <polygon points="16,2 18,8 14,8" fill="#1E3A8A" />
  <polygon points="26,10 22,12 24,8" fill="#1E3A8A" />
  <polygon points="30,16 24,16 24,14" fill="#1E3A8A" />
  <polygon points="26,22 22,18 24,24" fill="#1E3A8A" />
  <polygon points="16,30 14,24 18,24" fill="#1E3A8A" />
  <polygon points="6,22 10,18 8,24" fill="#1E3A8A" />
  <polygon points="2,16 8,16 8,14" fill="#1E3A8A" />
  <polygon points="6,10 10,12 8,8" fill="#1E3A8A" />
</svg>